<svg xmlns:xlink="http://www.w3.org/1999/xlink" width="88" height="24" viewBox="0 0 88 24" fill="none" xmlns="http://www.w3.org/2000/svg"><g clip-path="url(#harvey-logo)" fill="none"><path d="M0 18.2077V0h2.70197v7.83215h9.86393V0h2.6985v18.2077h-2.6985v-8.0823H2.70197v8.0855H0v-.0032ZM18.7911 14.7824c0-2.2675 1.8458-3.6755 5.0144-3.9032l4.2425-.3015v-.3528c0-2.0655-1.351-2.79676-3.1687-2.79676-2.1756 0-3.4178.882-3.4178 2.36697h-2.2598c0-2.56902 2.3159-4.25605 5.7864-4.25605 3.4704 0 5.5934 1.61326 5.5934 4.93594v7.7328h-2.2037l-.2772-1.9885c-.6878 1.4112-2.5335 2.2932-4.7126 2.2932-2.8915 0-4.6004-1.485-4.6004-3.7269l.0035-.0032Zm9.285-1.8891v-.6543l-3.4459.2534c-2.2879.2021-3.2248 1.0071-3.2248 2.2162 0 1.3086 1.0456 1.9629 2.7265 1.9629 2.4528 0 3.9406-1.4593 3.9406-3.7782h.0036ZM41.877 7.95725h-1.1579c-2.4529 0-3.9688 1.35988-3.9688 3.72685v6.5236h-2.5897V5.91743h2.4248l.1649 1.86342c.5509-1.28291 1.9019-2.13925 3.7477-2.13925.4667 0 .8527.05132 1.379.15074v2.16491ZM43.063 5.89185h2.7546l2.9476 6.87635c.4667 1.1579.8527 2.1906 1.0738 2.9475.221-.805.6597-1.8634 1.1299-2.9475l3.0037-6.87635h2.702L51.0531 18.2078h-2.5616L43.063 5.89185ZM57.25 12.0626c0-3.85188 2.6739-6.52354 6.5865-6.52354s6.3373 2.41828 6.3373 6.06814v.882l-10.4148.0257c.193 2.5947 1.6808 4.0283 4.2424 4.0283 2.0107 0 3.3336-.7569 3.7758-2.1649h2.4247c-.6597 2.646-2.9195 4.131-6.2531 4.131-3.9688 0-6.6953-2.6204-6.6953-6.4467H57.25Zm2.5616-1.1321h7.769c0-2.03984-1.4597-3.39972-3.7476-3.39972-2.2879 0-3.6915 1.2348-4.0214 3.39972ZM84.0596 16.7484c0-.9814.9088-1.7897 1.9826-1.7897 1.0738 0 1.958.8051 1.958 1.7897s-.9088 1.764-1.958 1.764-1.9826-.805-1.9826-1.764ZM76.6624 13.2686l-2.909-7.37675h-2.7265l4.3863 10.48135.2245-.5581 1.0247-2.5465Z" fill="#B2B4B9"></path><path d="M81.6628 5.89185h2.6739l-7.383 18.10825h-2.6739l7.383-18.10825Z" fill="#F4F3F2"></path></g><defs><clipPath id="harvey-logo"><path fill="#fff" d="M0 0h88v24H0z"></path></clipPath></defs></svg>