<svg xmlns:xlink="http://www.w3.org/1999/xlink" width="14" height="14" viewBox="0 0 14 14" fill="none" xmlns="http://www.w3.org/2000/svg"><g clip-path="url(#a-:R73dlsta:)" fill="none"><path d="M11.9274 11.9303H9.85425V8.68175c0-.77467-.01575-1.77158-1.08033-1.77158-1.08092 0-1.246.84291-1.246 1.71441v3.30572H5.45475V5.25h1.9915v.91058h.02683c.27825-.525.95492-1.07916 1.96584-1.07916 2.10058 0 2.48908 1.3825 2.48908 3.18208l-.0006 3.6668ZM3.11325 4.33592c-.66733 0-1.20342-.54017-1.20342-1.20459 0-.66383.53667-1.20341 1.20342-1.20341.665 0 1.204.53958 1.204 1.20341 0 .66442-.53958 1.20459-1.204 1.20459Zm1.0395 7.59438h-2.079V5.25h2.079v6.6803ZM12.9646 0H1.03308C.462 0 0 .4515 0 1.00858V12.9914C0 13.5491.462 14 1.03308 14H12.9628C13.5333 14 14 13.5491 14 12.9914V1.00858C14 .4515 13.5333 0 12.9628 0h.0018Z" fill="#B2B4B9"></path></g><defs><clipPath id="a-:R73dlsta:"><path fill="currentColor" d="M0 0h14v14H0z"></path></clipPath></defs></svg>